/* XPM */
static char *d4ba5c71c8894510b56f034653a49e13SIsa15BIOu69VQVX[] = {
/* columns rows colors chars-per-pixel */
"64 64 256 2 ",
"   c #190901",
".  c #011502",
"X  c #021C02",
"o  c #091E09",
"O  c #0D1104",
"+  c #301913",
"@  c #032303",
"#  c #032B03",
"$  c #0A230B",
"%  c #052B09",
"&  c #0B2C0B",
"*  c #082606",
"=  c #122B0E",
"-  c #043303",
";  c #043B04",
":  c #0B340B",
">  c #0D3B0D",
",  c #073609",
"<  c #12390D",
"1  c #0D2A12",
"2  c #132D13",
"3  c #152915",
"4  c #0D3312",
"5  c #0D3B12",
"6  c #083B14",
"7  c #133414",
"8  c #133C13",
"9  c #153C1B",
"0  c #1B3D1C",
"q  c #183618",
"w  c #23391A",
"e  c #2C2C14",
"r  c #1D3B23",
"t  c #253A25",
"y  c #3B2D27",
"u  c #55342A",
"i  c #59201A",
"p  c #0C430C",
"a  c #094806",
"s  c #12430D",
"d  c #15490B",
"f  c #0A5505",
"g  c #13550A",
"h  c #0D4312",
"j  c #0D4914",
"k  c #144314",
"l  c #1A4416",
"z  c #134B14",
"x  c #15431B",
"c  c #1B441C",
"v  c #154C1A",
"b  c #1B4C1C",
"n  c #1B4C15",
"m  c #145214",
"M  c #1B531B",
"N  c #1C5C1D",
"B  c #175717",
"V  c #0E5413",
"C  c #214B1D",
"Z  c #22431B",
"A  c #235B1D",
"S  c #23531B",
"D  c #334917",
"F  c #1A6719",
"G  c #1B761B",
"H  c #146B0C",
"J  c #25681C",
"K  c #25781B",
"L  c #276D11",
"P  c #1D4422",
"I  c #1D4C22",
"U  c #194526",
"Y  c #1D5423",
"T  c #1D5B23",
"R  c #1F572C",
"E  c #1F5430",
"W  c #224323",
"Q  c #234C25",
"!  c #244B2A",
"~  c #2A4C2C",
"^  c #28452A",
"/  c #235324",
"(  c #235B24",
")  c #24532B",
"_  c #2A542C",
"`  c #255B2A",
"'  c #2A5B2C",
"]  c #2A5925",
"[  c #324A34",
"{  c #2C5B33",
"}  c #2A5634",
"|  c #345A36",
" . c #2E4E2D",
".. c #1D6625",
"X. c #1D7725",
"o. c #1D6C30",
"O. c #236324",
"+. c #246C24",
"@. c #2B632D",
"#. c #256B2B",
"$. c #2C6B2D",
"%. c #296626",
"&. c #32672C",
"*. c #287727",
"=. c #36772B",
"-. c #2C6333",
";. c #2E6B33",
":. c #2B6536",
">. c #326434",
",. c #336B34",
"<. c #33653B",
"1. c #3A643D",
"2. c #346C3A",
"3. c #3B6C3D",
"4. c #3B6436",
"5. c #2B7635",
"6. c #35733A",
"7. c #39733B",
"8. c #367837",
"9. c #4E5134",
"0. c #6C4E35",
"q. c #43793A",
"w. c #486C34",
"e. c #484B1B",
"r. c #3A5B44",
"t. c #3A6944",
"y. c #3B7442",
"u. c #3B7845",
"i. c #36624C",
"p. c #74574B",
"a. c #456947",
"s. c #457748",
"d. c #4A7855",
"f. c #537A58",
"g. c #516E4E",
"h. c #6E7050",
"j. c #537966",
"k. c #626352",
"l. c #883734",
"z. c #AB313D",
"x. c #841C25",
"c. c #85493A",
"v. c #A7423D",
"b. c #B5394E",
"n. c #C73A57",
"m. c #CD3F62",
"M. c #91534B",
"N. c #A5464A",
"B. c #B44959",
"V. c #B95557",
"C. c #A85155",
"Z. c #8C6C55",
"A. c #BA5866",
"S. c #B15566",
"D. c #917065",
"F. c #AE756D",
"G. c #AC625C",
"H. c #CB4864",
"J. c #C65768",
"K. c #D65773",
"L. c #D0506C",
"P. c #E44D78",
"I. c #C96673",
"U. c #CC5360",
"Y. c #1A8717",
"T. c #35951E",
"R. c #30861D",
"E. c #1E852A",
"W. c #298429",
"Q. c #34872A",
"!. c #389529",
"~. c #388637",
"^. c #399639",
"/. c #2C8D30",
"(. c #39A42A",
"). c #39A43A",
"_. c #448738",
"`. c #469738",
"'. c #489230",
"]. c #53B928",
"[. c #47A638",
"{. c #59B638",
"}. c #4DAD33",
"|. c #63AB36",
" X c #59C532",
".X c #66C43C",
"XX c #74C835",
"oX c #3A8745",
"OX c #3D9444",
"+X c #468748",
"@X c #55874B",
"#X c #489749",
"$X c #55974A",
"%X c #4B8655",
"&X c #568658",
"*X c #4B9654",
"=X c #569858",
"-X c #659559",
";X c #698951",
":X c #4CA846",
">X c #56A948",
",X c #58B748",
"<X c #58A658",
"1X c #5AB756",
"2X c #4EAB50",
"3X c #65A85B",
"4X c #66B557",
"5X c #6DB650",
"6X c #5A8765",
"7X c #5B9864",
"8X c #598170",
"9X c #648969",
"0X c #659767",
"qX c #688976",
"wX c #6A9876",
"eX c #749979",
"rX c #749D69",
"tX c #5CA662",
"yX c #5DB368",
"uX c #67A768",
"iX c #75A978",
"pX c #78B87A",
"aX c #6EB16C",
"sX c #5BC248",
"dX c #69C757",
"fX c #73CB50",
"gX c #7ACA77",
"hX c #77CD6C",
"jX c #898567",
"kX c #AB8E78",
"lX c #84B974",
"zX c #8F8454",
"xX c #80D557",
"cX c #83CD71",
"vX c #92E77C",
"bX c #80E75E",
"nX c #C1A27E",
"mX c #ED5C85",
"MX c #CE7284",
"NX c #EF6A8E",
"BX c #BF7585",
"VX c #719385",
"CX c #78AF82",
"ZX c #7ACD84",
"AX c #AE8983",
"SX c #89B493",
"DX c #95B8A7",
"FX c #98A88C",
"GX c #E6A7A4",
"HX c #8CCD8F",
"JX c #97EB90",
"KX c #A8D4B7",
"LX c #A9F3AC",
"PX c #9ED8A2",
"IX c #B6D7C8",
"UX c #D0F0DF",
/* pixels */
"r ! 7 X 4 & 4 6 r . X 8 ) { ` I Y Y :.t.t.* | 9 } 1.f.u.t.:.7X6Xi.t.d.f.$ W 4 w < A q.d z $X_.~.y.v { X ,.*.'.5X; l l k { 4.' / ",
"0 q % 0 0 9 c : r . $ 7 4 U } ` I E :.a.X 4 _ # a.) &Xd.d.i.u.%XE :.i.d.X X t Z * ] aXf >X$X~.~.HX7X: X 2.N uXq.>.Q v } t.@.&.' ",
"P @ 5 c x P P ~ . o o $ 1 r t.} I ` -.) # @ | @ t.E t.6XwXu.i.oXt.:.:.} . . $ 8 7 * q.d `.Q.+.=XPXwX@ * 4.] q.&X6X2.a s.' ] 4./ ",
"r X ) f.>._ P o o 3 3 3 X d.9Xt.Y { >./ : @  .@ { | 6 CXCX6Xt.2.oX} } r.0 . o 7 t X < lX`.*.B O.uXLX: a.a.&.D f.SX0XM &X@./ , # ",
"_ a.1./ 0XQ 4 . 1 3 7 r } CXi.| ) _ - 4.>.@ } P 8 ` / CXwX9Xs.i.t.7.] ' r o r X W o * # lX=X@XwX{ 6 1.c # : &X-XiXPX3Xd - s.@.{ ",
"k C Q v I P . . $ q 1  .i.d.t.| l @ < 5 / x C s.` z n ' 0X9Xs.<.:.$.;.J | O 0 X ~ $ 7 * X 0 ^ q X . X 4 l 0Xs.rXSX-X;XrXA M { @.",
"/ C l # 7 7 . X o W @ } ) % 4 & X & Z n @XP - s.2.T d ; 9X&Xa.i.) T q.q.a.X d S < ^ 7 2 = o o o o . ^ 7 s.q.d f.9XiXs.+X7.M ] ' ",
"S b , : ~ X $ 2 0 ~ x t.d.d.! W ~ & s 4.iX{ , -.2.T M k W 6Xi.i.E ' s.>X' 5 |.aXq.| $ & w 3 . X o . [ l rXw.w.+Xs.6.,.O.M n l ' ",
"Q 8 8 ~ . $ $ & ~ _ _ x ) s.d.r.SX{ , # s.1.:.Y T T l Q 1 _ -.{ ` :.+X$Xa 3X>Xs @ Z < = W w @ < . q W C D s.n d fXxX4Xg v p p k ",
"7 w r . o 2 7 t.Q b c l 8 x s.| DXi.t.U c s.7.,.> > ! $ X @X=.J o.) _.pX_.] X < 4 0 W Q r 0 0 a.0 7 7 % Q &X&.5XXX].'.$.` n M k ",
". o . $ o @ % wXk ) 8 _ b <.f.s.6X{ <.7X- +X2.s., - . 1 & @X!.*.O.B 6.u.m > : , 4 _ U _ @ r 1 w.7 2 7 7 c _ +X5X|.|.J ..6.m A &.",
". * 1 ^ a.@ s.b k - > Q >.d.CXy.v T 7.#X<X_.@.{ > @ ~ | b 8.=.G F +.z p ; d q.n - | ) ) X 3 q C # w w r s 8.8.5X.X>X#XO.%.@.$.6.",
"& q 9 I % t.t., , - , # 5 b b ` 5.8.=.$XhX*.@.x b # a.d.h $.*.K *.8.V Y , ` M > = ] ` ` ! ^ t : & & t r.L xX=.'.fX2X<XpX6...T T ",
"_ 8 x x : / Y k > - , > : : - ;.=X+.W.dXvXg +X, a.# [ } > m $.*.#.+Xa M ' M > # * C @.] b g.t.l : X j.t.fX].Q.L dX*XyXCXHXiXu.o.",
"` R j 6 h ) v h s , < 8 8 k 3.=X*.G }.dX4Xf $.A -X, i.{ 5 ; B ..5.tXp z ,.c * X < S 7./ : | d.>.< qX! =.xX].}.'.aX$X7X7XCXpXCXu.",
"P <.t.U c h / k s 5 k > ) a.s.u.#XG 1X1X:XH B +Xq.M # SXq.I , > k ,.p T / # @ : Z d 7.] _ $ DXd f.a.&.XXfXfXfX3XK 5.@.s.1._ % : ",
"9 t.} 1 9 5 Y b k 5 , 8 / eXd.*X=.^.1X2X:Xf F B # # f.6X8 @ % % 8 ` h @.k # * x C z m ' ^ | eX<.&.8 @XbX.X.X,X$X6.@.I j t.&X3.C ",
"| U o j.4 > ` / v 5 > , -Xs.2.+X+.yXyXW.f *.K a , U d.KXf.8 * 0 % &XY ' ; , 7 5 S A z 8 X [ X ) A @ n &.5XfX[._.oXy.O.2.:.2.>.' ",
"qXr.U VX| ' ` ] l k - M Q 3.Y B 8.yXoXf H `.*.J h a.o 9Xt.<.@ C 8 5 ' l Q # < b M @.M 7 ~ a.t q , Y 0Xx - @.%Xd.d.d...Y ,.7.&X&X",
"VX6X8XCX8XU ` ,.p k z / 4.` v p <X*X..F '.[.!.$.% qX[ U UX% } c 4 5 I 8 b : 8 k M M k % t 1 DXt x 2.' % a.X X 3 r { R Y ;.s.%X>.",
"i.a.s.j.8XU 2.+Xa h ] :.j j T ;.=X*X$.+.'.,X`.rXiX7 j.VXd.r 7 } : 4 _ Q @ k k m m s 9 | j.DXDXDXr., SXy.} qX$ . 0 t.S ,.7.y.s.# ",
"d.a.O.{ t.} n A ; M Y 2.v p B +X5.oX#.uXQ.,X`.uXaXJ qXwX8Xf.0 7 W X % * @ > p d d C 7 3 j.VXj.VXj.6 %XO.Y > w.~  ._ ,.,.y.y.%Xb ",
"s.0X=X&._ c d q.M ( v ( p V B 5.#.5.<XgX!.hXuX#X`.>X8 % <.u.% 9 q & & & * # &.3X< 0 & a.d.VXVXKXSXh X.*XoXM 5 v I ( $.@.y.,.uX>.",
"$XQ.0X3.q.q.- $X%.( z z m F 8.H *.yXvXJX).gXCXOX`.}.8.=X2.:.% 9 q 8 % q 4.rX-X@Xl * ^ 9X1 r IXDXVX+X[.OX~.+XT z m M z N T :.>.Q ",
"dXK j h S d 5 &.%.' s A J J :XG hXdXsXhXT.).6.u.#XQ.OX1X..=Xx % 8 < 8 < < < g D * q  .f.HXVXDXKXwX5.K K G =.g g m z M n O.y.` Y ",
"sX!.6.*XcX=.a 8 / &.; %.=.:X~.2X:X,XsX:X:XR./.N k F F +XF KXj.% < 7 0 Q d l < # @ & < l %.lX@.PX%XB p ;.f }.T.L F F $.6.s.+Xt.<.",
",XK oX#XaXxX=.: l >.a A ~._.~.^.^.,X).).:XG ^.+.z ~.g #X;.KXqX: * 7 0 _ D : @ * & W x n S Q.3XPXoXB - - '.}.(.!.K *.O.@.y.u.%X6X",
"H W.#X*X5X|.lX/ t.] d a +XF *X#X^.2X).!.#XQ.K *.~._.a 7.s.iX&.d @ & 8 t D X = 2 t q : > J =.`.cX_.g p ; fX].].Q.Q.+.F ,.2.t.%Xs.",
"/.~.+X+.`.5XL q _ ' z O.N M *XOX/.E././.#XW.X.W.*.+Xa m =XaX$X3XX y * = O 3 y 3 $ . 1.s f R.L L `.'.-XK {.fX}.!.^.#.M -.t.u.t.2.",
"~.5.O.%X=X# C 8 8 b $.;.N - 7X~.^.W.*.OX*.5.W.*.W.+Xa =X<X>X[.5Xe p.y + u Z.p.o y 3 # J ,X!.T.G #Xf _.Q.L '.#XQ.~.;.Y ) :.:.<.<.",
"@.' t.| * : Z ) x ,.7.=.A 5 SX+XW.W.~.W.8.~.X.+.~.=X*X5._.!.(._.p.C.G.M.Z.D.u k.j.j.` ^.[.T.[.G 8.f H ~.Q.a 8.Q.8.7.Y I :.{ :.' ",
"X . o X X o = C v s.A q.; a J W.W./.*.#.8.#.X.X.F u.+.+.~.`.$XD M.V.N.G.|.'.@.. 3 CXB sX).Y.!.^.f >Xg g _.'.n g +Xq.O.N v R I O.",
". o * $ $ = 4 2 q.%X8.@Xg 8.$.+.+.*.o.5.T V +.A N ;.O.W.`.=.0.u M.B.M.|.T.}.sX=.% &X#.^.).Y.(./.^.g ~.a `._.L L n @Xz M v I Y @.",
"@ q 9 4 q q & a.SXs.T ;.a j N ......O.' ; m =.;Xw.X._.OXK zXc.G.C.C.Z.=.!.}.].,XB a <XQ.).G Y.Y.:Xa a d &.; L w.@ iX@X6 z j j :.",
"% ^ x 7 7 4 * l , ,.j ..J a B ..T ..j ; x B &.;X;X,.aX=.h.0.N.B.b.C.9._.W.'.}.!.[.~.K /././.E.Y.>X; l 8 @ ] &.%.t.0XM h j v T :.",
"4 U 6 4 9 > q.A f =.B F =.F V 8.*X%X%X2.v V q.rXkX@XQ.=.0.V.J.U.S.u Z J Q.!.(.(.[.!.Y.W.X./.H /.^.# c 2 * ~ q.p } d.O.j j M Y o.",
"4 x x ! 9 > PXvXxXbXfXsX,XgXtXuXCX7X*XoXoXV @X9.0.M.w.0.l.b.z.V.0. ./ ..g Q.)./.Y.!.!.oXoXo.~.*.+X- 9 X : # ; p k C q.J O.N N R ",
"4 P W ! ^ k @XhX X X XT.).hXgXCX=X%X#X#XyX;.g.F.n.N.M.c.v.z.n.I.u [ w.T J G E.Y.G E.~.#.*XOXaX+.a &.s.4.| - p k k &.A +X$.O.T ` ",
"7 P 0 $ * ] F vX X X XsX,X1XJXpXpX*X*X#X3X_.;XC.n.n.G.c.n.I.L.i 9.c.p./ $.F E.G X.G *.F #XoX..F N ,.7.# Q s s C b : l $X+X+.T v ",
"q & X $ . >.H JXsX}.sX).JXyX<XyX<X<X#X#X`.'.e.c.U.n.MXv.z.G.M.  9.z.M.W m G W.G X.X.F X.oXT h B @Xk $.k & Z 5 4 # 1.&X=X#X8.N -.",
"eX&.* < @ q.a JXhX X}.).2XhXOXOXQ.'.:X#XOX~.e.c.b.H.z.B.b.M.i O p.c.p.d f G X./.X.E.F ; Y ; h &X- @X=.HX= < # ] lXtX+Xu._ $XF p ",
";XJXcXuXq.~.f fX X X}.).W.gXyXoXOXQ.*./.^.<Xe.M.x.b.z.B.b.i +   k.k.g.@X*X2X).X.G W.F j j j ` Y 0XC *.>Xd rX5XcXaX#X5.R p _.H a ",
"lXvXvXfXdXhXQ.fX}.!.G V OXW.<XOXoXOX8.5.5.*.e.Z.b.m.mXL.B.n.S.  wXHX~.oX*X*X2XH G X.F ( h T 7Xp s &.|.|.xX* |.{.[.2X*XCX$X}.T.K ",
"lXLXhXbXhXgX<XdX:XE.oXo.*.*.tXtXoX*X+XOX5.u.* Z.N.m.mXNXL.P.MX9.u.pXoXOXOXOXE.H X.X.#.j ` 8 1.4 &XrX3XxXxXg $XT.'.`.oX%X#X|.'.R.",
"HXLXJXcX4XHX=X~.OX*Xu.o.F ~.2XuX*X0XoXOX+X;XD Z.N.m.mXmXmXmXC.g.u.*X*XoXoXoX/.o.oX#.,.> t.s.3 . ~ ;XrX&X=.L d '.K J F $.+.L R.`.",
"cXgXJXgXaXcX*XOXy.oX*XoXF K ^.1X$XlX0X<Xg.0.c.w.N.H.mXmXmXNXA.D.=X=X=XoX5.oX5.#.8.s., / f.^ . O o . . o -Xq.A L %.z p p p B K g ",
"aX.XcX,X<XZX%XuX6.tXoXoX~.F OX^.-Xh.zXzX0.c.u 9.l.H.mXH.NXmXMXFXiX<X*XoXoXu.u.6.{ Q v t.d.. 3 t r r t t } c A ( n n v x k > p ` ",
"w..XdXJXoX<X2X*XB *XyX5.5.o.E._.D 9.C.V.G.M.M.h.Z.S.NXmXmXH.b.F.CXu.6.5.o.o.5.% * 4 7 6X7 X 3 a.1 a.d.FXqX^ 6 { <.4 x ! z p d ; ",
"& |.:XgX<XOX#X*Xa oXHX2.;.o.G +.8 O + 0.F.l.M.0.F.F.BXNXP.n.b.kX+X~.8.s.-.6.oX@ w.& & | = q 7 q q 9 6 ~ IXqXt.4 t.P <.) / n p p ",
"a.uX<XyXyX#X2X#.B ..aXuX6.5.O.> : 3  .u M.V.b.i u FXy MXn.n.x.nXe.$X7X=Xu.u.+X# | 0 t.7 . t | _ r.{ } r r.j.E * ! t.>.7.u.( ;.h ",
"UXKXtXiX7X#X8.~.J #X=.aXuX&X<.X 5 w.p.G.B.n.B.    t t   kXc.M.0.c.0.w.@.o.u.>.Q * { [ X r [ P 8 { -.{ R r d.X 4 <.` @.@.2.7.$.M ",
"r.% uXCX7X+Xp *.J <XB +.M c X * ,. .B.L.H.m.J.+ . o k.3 HX0.Z.M.G.F.G.h.g.4.< 1.t.~ t.* $ . x x z #.T Y I } % % d.' O.( $.=.#X,.",
"s.` k x 5 5 # k 8.#.J B ;.# ,._.7.D.I.K.J.K.MX9.r.1 w 9.= D.0.l.F.nXK.J.AX+ 3 X @ * | o @ 9 I v M 6.$.@.R I % | 3.-.$.+X=.A g n ",
"J 6.6.2.S - & ~ > ' <.' k f $X~.o.AXK.K.S.K.MX  = t.< o 9.Z.n.V.+ Z.GXkXi O @ * * * q 1 ! } I ) O.6.=.7.:.} @ &Xs.6.;.$.n m p 8 ",
"N ..j Y h , # t., & @ Q s._.dX:XoXF.K.K.K.MXD.e ~ = g.D y G.m.K.+ u p.e w * 4 t 2 7 # ! { <.` #.%.*.=.oX6.<.5 t.t.s.Y n p k v W ",
"T %.:.7.&X> { > k q . l _ 1X4X3X=XF.MXmXNXGXe w | o a.f.k.A.n.U.b.k.[ Z _ - _ 0 2 @ s <.:.T 2.#.8.+.8.Q.~.8.f./ I ' b / z ! 7 * ",
", O.s.-.iX5 &X- 9 : & I ] hXhXhXHXkXK.I.I.u w ^ a.[ . 0 h.A.B.L.A.9.! b @.l <.& q % ' @.T v 6.#.Q.F Q.Q.~.7.% I I x k k W X X $ ",
", v #.2.&Xt.rX@ 7 < : : iX<X>X#XoXzXI.I.u w Z 9Xt o r.. h.I.L.L.A.u Y @.@.I 8 # 1 r ' j X.B 5.5.*.K Q.'.Q.( 1 : l l > l Z 2 * 0 ",
"6X, 6 T s.Y %X{ - / x M 5.yX1XgXgX@X0.e l x ) qXX t eXo j.BXK.P.F.9.:.2.{ ` 5 { P - n {.:XQ.f `.Q.T.T.[.5X@ 7 l b n b 8 0 8 ,.q.",
"9X8 5 %X> , iXiX# >.u.#.tXyXZXaX8.L f.-X,.p ] w., P : W f.u J.MXD.a.6.y.-.` c s.eXA 5X].T.K f *.[.(.}.'._.* & l &.` n l < # _.3X",
"@ 7 x 6X- I %X7XV VXoXo.<X*XtXo.oXK =Xp M s l - ] %XA l * O F.u 9X@X@Xt.t.5 ! j.CXuX|.'.H K +.f 5X{.}.aX# 7 & C &.$.Y 8 * I 3X3X",
"qX0X| 3.` v %Xm *X5.o.oXZXoXyXoX7.G *Xd &.l s - 7.-XA A < w 3 g.-X7XiX0Xc x U 6XwX,.~.#XK J N N K }.|.cX- 8 @ >.$.%.p 5 * <.7.+X",
"I 8 s > h % oXE tXo.oXoXZXo.LX%XuXu.@.&.q.- s p A %.J q.< 7 ] iXrXpXf.q . d.Y y.s.a.@ 4 7.>.v - - lX5Xa 5 d 2 l @.O.l & P { @.B ",
"I b b 8 4 % 6 *X5.oXo.u.OXOXoX%X, v ; - A A k > - =.j @XA &.7.&.8.> q 3 o 2 t.) f.g.W r.a.t.# > - < '.A a d . 4 S %.> & Q ) 2.- "
};
