/* XPM */
static char *_2c6d512bf3b40f7d6cd7c0f29a47c5e9jJNBWXOYk9bummA[] = {
/* columns rows colors chars-per-pixel */
"64 64 142 2 ",
"   c None",
".  c #3F3527",
"X  c #51432F",
"o  c #4C4131",
"O  c #5C4E3A",
"+  c #5B503F",
"@  c #5C5343",
"#  c #655A46",
"$  c #665C4B",
"%  c #6A5E4C",
"&  c #676054",
"*  c #6C6454",
"=  c #6A655B",
"-  c #746A57",
";  c #746B5B",
":  c #796F5E",
">  c #7A705C",
",  c #736F66",
"<  c #747067",
"1  c #7C7363",
"2  c #7D766A",
"3  c #7E786D",
"4  c #7F7B73",
"5  c #81725A",
"6  c #827661",
"7  c #847966",
"8  c #887C67",
"9  c #857C6C",
"0  c #887E6C",
"q  c #837D73",
"w  c #887F71",
"e  c #8A806D",
"r  c #8C8373",
"t  c #8E877B",
"y  c #8F887D",
"u  c #948772",
"i  c #938976",
"p  c #988B76",
"a  c #948C7D",
"s  c #9A8E79",
"d  c #9C907B",
"f  c #8F8A82",
"g  c #938D83",
"h  c #938F89",
"j  c #9C9384",
"k  c #96928B",
"l  c #9B958C",
"z  c #9E988C",
"x  c #999690",
"c  c #9E9993",
"v  c #AA9B82",
"b  c #A09789",
"n  c #A29A8C",
"m  c #A39D93",
"M  c #A09D98",
"N  c #A6A095",
"B  c #A9A194",
"V  c #A6A29C",
"C  c #ABA59A",
"Z  c #AFA89E",
"A  c #B4AA96",
"S  c #B2AB9D",
"D  c #BDB29D",
"F  c #A7A4A1",
"G  c #ABA6A0",
"H  c #AEA9A4",
"J  c #AFADA9",
"K  c #B3ADA4",
"L  c #B2AEA9",
"P  c #B6B0A5",
"I  c #B9B2A4",
"U  c #B5B2AC",
"Y  c #BAB5AB",
"T  c #BFB9AE",
"R  c #B5B4B0",
"E  c #B9B6B2",
"W  c #BDBAB4",
"Q  c #BFBDBA",
"!  c #C4BBAA",
"~  c #C8BDA8",
"^  c #C1BDB5",
"/  c #C1BEB9",
"(  c #C9C0AE",
")  c #C6C0B5",
"_  c #C5C2BC",
"`  c #CAC5BC",
"'  c #CEC9BE",
"]  c #D2CBBC",
"[  c #C7C4C0",
"{  c #C9C6C1",
"}  c #CCCAC5",
"|  c #CDCCC8",
" . c #D2CDC4",
".. c #D1CEC9",
"X. c #D5D1C7",
"o. c #DBD4C5",
"O. c #D4D2CC",
"+. c #DAD5CC",
"@. c #DED9CF",
"#. c #DDD8CE",
"$. c #D4D3D0",
"%. c #D5D4D0",
"&. c #D7D5D0",
"*. c #D8D6D1",
"=. c #D8D7D3",
"-. c #D8D6D2",
";. c #DDD8D0",
":. c #DCD9D3",
">. c #DDDAD3",
",. c #DFDBD2",
"<. c #D9D8D4",
"1. c #DBDAD6",
"2. c #DCDAD5",
"3. c #DFDBD4",
"4. c #DDDBD6",
"5. c #DCDBD7",
"6. c #DEDCD7",
"7. c #DEDCD9",
"8. c #E1DACB",
"9. c #E1DBCF",
"0. c #E0DCD4",
"q. c #E0DED8",
"w. c #E0DFDA",
"e. c #E1DFDA",
"r. c #E4E0D7",
"t. c #E1E0DB",
"y. c #E5E2DB",
"u. c #E6E2DA",
"i. c #E1E0DC",
"p. c #E4E1DD",
"a. c #E4E2DE",
"s. c #E6E3DE",
"d. c #E7E4DC",
"f. c #E6E4DF",
"g. c #E7E4DF",
"h. c #E7E5E0",
"j. c #E8E6E0",
"k. c #E9E6E0",
"l. c #E8E6E1",
"z. c #E9E6E1",
"x. c #E9E7E2",
"c. c #EAE7E2",
/* pixels */
"                                                                                                                                ",
"                                                                                                                                ",
"                                                                                                                                ",
"                                                                                                                                ",
"                                                                                                                                ",
"                                                                                                                                ",
"                                                                                                                                ",
"                                                                  o.o.] T                                                       ",
"                                                                ] o.8.9.` g                                                     ",
"                                                              ~ ( o.o.] { x                                                     ",
"                                                              D A ~ ! O.T                                                       ",
"                                                                d n ` ;.^                                                       ",
"                                                                j ^ ) ) N                                                       ",
"                                                                ^ ) C r                                                         ",
"                                                          ;.0.g.O.^ N $                                                         ",
"                                                        r.d.u.c.g.` E V q k                                                     ",
"                                                       .y.y.g.c.h.h.h.e...=...                                                  ",
"                                                      i n  .g.c.h.a.y.t.t.0.O.V                                                 ",
"                                                      # % P y.g.e.3.e.h.3.| ..V                                                 ",
"                                                        & C +.0...| y.g.` P { G                                                 ",
"                                                          e b K m _ +.@.Y I ) Z                                                 ",
"                                                          > - 2 l ^ Z j ;                                                       ",
"                                                          q 2 a )  .B - @                                                       ",
"                                                          x M U ! T P * o                                                       ",
"                                                          [ E E _ _ Z r 2                                                       ",
"                                                        W $.=.O.X.`  .' _                                                       ",
"                                                        W O.3.*.#.' ;.X. .K                                                     ",
"                                                        U | O.O.+.@.O.` _ H                                                     ",
"                                                        R } | | ' ` _ _ _ U                                                     ",
"                                                        R } | _ { ` _ ^ { U                                                     ",
"                                                        Q $.%.| { _ / [ ..L                                                     ",
"                                                        [ <.a.O.{ ` _ O.| V                                                     ",
"                                                        Q <.a.7.{ N _ *._ h                                                     ",
"                                                        W O.<.<.| | O.| E q                                                     ",
"                                                        E | %.$._ |  .` H <                                                     ",
"                                                        R | $.| E / [ Q c =                                                     ",
"                                                        J [ ..} H T _ E f                                                       ",
"                                                          / { } M S W J 4                                                       ",
"                                                          _ | { l K T V <                                                       ",
"                                                          Q | _ t A I a &                                                       ",
"                                                          U | ^ 7 v A 7                                                         ",
"                                                          G { P * d S 1                                                         ",
"                                                          V / l $ i l ;                                                         ",
"                                                          j b 2   u r &                                                         ",
"                                                          p r >   B n 2                                                         ",
"                                                        t a e - > S C 3                                                         ",
"                                                        r a e > 9 S N &                                                         ",
"                                                        r g r > i K z * 1                                                       ",
"                                                          a r O a C a * j                                                       ",
"                                                          a 8 . j S 0 * C l                                                     ",
"                                                          a 6   n C > 9 C l                                                     ",
"                                                          a 7   B b % j K c                                                     ",
"                                                          b 5   A r O p B g                                                     ",
"                                                        S n ;   I 1 X 5 u                                                       ",
"                                                        K j   % I w # d S                                                       ",
"                                                  m c C A 1 & 0 C ^ C j S m                                                     ",
"                                                  F F n j M G C g K K V m c                                                     ",
"                                                c G G H G V V G G C m m C b                                                     ",
"                                                a m m C m m m m m k l j j p                                                     ",
"                                                  y g g 2 g g a 1 ; ; r 0                                                       ",
"                                                                                                                                ",
"                                                                                                                                ",
"                                                                                                                                ",
"                                                                                                                                "
};
